<?xml version="1.0" encoding="UTF-8"?>
<svg id="Layer_2" data-name="Layer 2" xmlns="http://www.w3.org/2000/svg" width="8.008in" height="8.062in" viewBox="0 0 576.581 580.451">
  <path d="M276.154,579.868c-99.61-6.241-186.517-64.601-236.332-148.782C11.573,383.347-1.815,329.526.197,274.414c2.185-59.853,22.819-116.868,60.042-163.999C115.871,39.974,194.891-1.244,285.729.029c90.405,1.267,173.57,45.304,229.054,115.778,39.429,50.081,61.231,111.248,61.78,175.12.249,29-2.221,56.491-9.684,84.366-34.753,129.812-156.606,212.977-290.725,204.575ZM386.603,518.816c39.276-16.07,71.961-42.954,96.685-77.182,23.731-32.853,38.428-70.061,42.809-110.529,3.177-29.343,2.915-58.2-3.443-87.028-18.19-82.466-77.95-150.566-157.106-179.83-42.844-15.839-88.765-17.466-133.203-7.764-49.162,10.733-92.331,36.039-125.199,74.085-19.855,22.983-35.742,48.266-45.425,77.413-29.511,88.836-7.124,185.603,58.308,252.801,70.008,71.896,172.287,96.614,266.573,58.036Z"/>
  <path d="M421.455,340.449l-26.212,41.99-30.479,49.556-.087,54.458-25.106.119-.215-53.358-50.756-77.881-25.14.141,1.389,70.691-25.096.029-.525-77.334-38.138-.098-.032-65.654-24.698-.19-.062-145.712,96.947-.07.184,23.798-70.551.026-.187,33.259,53.352.472c39.3.348,69.314,36.964,67.59,76.978,18.865,3.967,33.15,18.02,36.841,36.486,3.234,16.178-2.872,30.913-15.05,41.666-6.045,4.123-12.139,6.774-20.159,9.71l29.564,47.805,39.318-66.954,27.312.07ZM297.445,271.05c.148-9.706-1.073-16.975-3.892-24.698-14.796-31.21-38.505-28.494-69.13-28.065l1.128,107.787c4.706.527,8.585.492,13.405.035l.125-54.873,58.364-.186ZM295.294,295.721l-31.686-.006-.863,28.458c15.953-2.548,28.764-12.557,32.549-28.452ZM302.341,335.407c10.574,4.24,23.032,1.503,30.174-7.555,4.061-5.151,5.057-11.499,3.215-17.878-1.487-5.146-5.7-10.263-12.389-11.869-4.653,17.496-6.779,24.421-20.999,37.302Z"/>
  <polygon points="286.076 125.472 266.268 105.338 286.23 85.337 305.585 105.235 286.076 125.472"/>
  <polygon points="131.643 326.494 112.171 306.517 131.909 287.036 151.277 306.462 131.643 326.494"/>
  <polygon points="450.681 327.955 430.862 308.223 450.745 288.47 470.227 308.037 450.681 327.955"/>
  <polygon points="287.925 516.239 268.331 496.762 287.792 477.232 307.397 496.573 287.925 516.239"/>
</svg>